<svg xmlns="http://www.w3.org/2000/svg" xmlns:xlink="http://www.w3.org/1999/xlink" version="1.1" id="Layer_1" x="0px" y="0px" viewBox="0 0 500 100" enable-background="new 0 0 500 100" xml:space="preserve"><path fill="#231F20" d="M277.8 46.4c-0.5 1.1-1.7 2.7-4.1 2.7c-1.5 0-4.4-1-4.4-4.9V26.5h14.4v-9.7h-14.4V6.5h-9.7v10.2h-6.9v9.7 h6.9v17.7c0 9.2 7.2 14.6 14.1 14.6c7.1 0 11.8-4.8 13.6-9.9L277.8 46.4z"/><polygon fill="#231F20" points="208.2,57.8 186.4,36 205.6,16.8 191.9,16.8 177,31.6 177,3.1 167.3,3.1 167.3,57.8 177,57.8 177,40.4 194.4,57.8"/><path fill="#231F20" d="M146.7 16.8v1.8c-2.8-1.8-6-2.8-9.5-2.8c-10.6 0-19.2 9.7-19.2 21.5s8.6 21.5 19.2 21.5c3.4 0 6.7-1 9.5-2.8 v1.8h9.7v-41H146.7z M137.2 49.1c-5.2 0-9.5-5.3-9.5-11.8c0-6.5 4.3-11.8 9.5-11.8c5.2 0 9.5 5.3 9.5 11.8 C146.7 43.8 142.5 49.1 137.2 49.1"/><path fill="#231F20" d="M235.8 16.8v24.1c0 4.5-3.7 8.2-8.2 8.2c-4.5 0-8.2-3.7-8.2-8.2V16.8h-9.7v24.1c0 9.9 8.1 17.9 17.9 17.9 c3 0 5.7-0.7 8.2-2v1h9.7v-41H235.8z"/><path fill="#231F20" d="M353.8 15.7c-3 0-5.7 0.7-8.2 2v-1h-9.7v41h9.7V33.7c0-4.5 3.7-8.2 8.2-8.2c4.5 0 8.2 3.7 8.2 8.2v24.1h9.7 V33.7C371.7 23.8 363.7 15.7 353.8 15.7"/><path fill="#231F20" d="M85.9 57.8V41.9h6.9l11.9 15.9h12.2l-14.4-19.2c4.5-3.2 7.4-8.5 7.4-14.4c0-9.8-7.9-17.7-17.7-17.7H76.2 v51.3H85.9z M85.9 16.2h6.3c4.4 0 7.9 3.6 7.9 7.9c0 4.4-3.6 7.9-7.9 7.9h-6.3V16.2z"/><path fill="#231F20" d="M328.2 37.3c0-11.9-8.6-21.6-19.2-21.6c-10.8 0-19.2 9.5-19.2 21.6c0 12.7 10.8 21.6 20.6 21.6 c4.9 0 11.6-1.7 16.9-9.2l-8.5-4.9c-7.2 8.8-17.2 2.8-18.2-4.6l27.5 0C328.1 39.2 328.2 38.2 328.2 37.3 M317.2 31.4h-16.4 C302.6 23.4 315.4 21.8 317.2 31.4"/><path fill="#BF0000" stroke="#C0272D" d="M65 32.1c0 15.4-12.5 28-28 28c-15.5 0-28-12.5-28-28c0-15.4 12.5-28 28-28 C52.5 4.2 65 16.7 65 32.1"/><path fill="#FFFFFF" d="M33.3 47.2v-9.3h4l7 9.3h7.1l-8.4-11.3c2.6-1.9 4.4-5 4.4-8.4c0-5.7-4.6-10.4-10.4-10.4h-9.4v30.1H33.3z M33.3 22.8h3.7c2.6 0 4.7 2.1 4.7 4.7c0 2.6-2.1 4.7-4.7 4.7h-3.7V22.8z"/><rect x="379.6" y="51.2" fill="#231F20" width="6.6" height="6.6"/><path fill="#231F20" d="M412.6 32.7c-1.5-2.6-4.3-4.2-7.3-4.2c-5.5 0-9.5 5.4-9.5 12.8c0 7.4 4.1 12.9 9.5 12.9 c3.1 0 5.7-1.6 7.4-4.5l3.7 3.3c-2.5 3.5-6.5 5.5-11.1 5.5c-8.6 0-14.5-7-14.5-17.2c0-10.2 5.9-17.2 14.5-17.2c4.7 0 8.7 2 11.1 5.5 L412.6 32.7z"/><path fill="#231F20" d="M447.7 41.4c0 10.3-5.9 17.2-14.6 17.2c-8.7 0-14.6-7-14.6-17.2c0-10.3 5.9-17.2 14.6-17.2 C441.8 24.2 447.7 31.2 447.7 41.4 M423.5 41.4c0 7.5 4.1 12.9 9.6 12.9c5.5 0 9.6-5.4 9.6-12.8c0-7.5-4-12.9-9.6-12.9 C427.6 28.6 423.5 34 423.5 41.4"/><path fill="#231F20" d="M456.7 27.9c1.9-2.4 4.6-3.7 7.7-3.7c3.4 0 6.3 2.1 7.7 5.6c2.3-3.8 5.4-5.6 9.4-5.6c6 0 10 5.1 10 12.8 v20.8h-4.7V36.9c0-5.1-2.3-8.4-5.9-8.4c-3.8 0-6.7 3.7-6.7 8.4v20.8h-4.7V36.9c0-5.1-2.3-8.4-5.9-8.4c-3.5 0-6.7 4-6.7 8.4v20.8 h-4.7V25h3.9L456.7 27.9z"/><g><path fill="#BF0000" d="M20.5 78.1c-1-1.1-2.2-1.6-3.5-1.6c-1.5 0-2.6 0.9-2.6 2.1c0 0.7 0.3 1.2 1.1 1.6c0.4 0.2 0.4 0.2 2.7 1 c3.9 1.3 5.6 3 5.6 5.9c0 3.3-2.9 5.6-7 5.6c-2.7 0-5-1.1-6.8-3.2l2.3-2.5c1.2 1.5 2.9 2.3 4.5 2.3c1.9 0 3-0.9 3-2.2 c0-1-0.3-1.5-1.2-2c-0.6-0.3-0.8-0.4-2.4-0.9c-4.2-1.3-5.9-2.9-5.9-5.6c0-3.1 2.8-5.5 6.5-5.5c2.3 0 4.3 0.8 5.9 2.3L20.5 78.1z"/></g><g><path fill="#BF0000" d="M30.6 78.6c0.8-1 2.2-1.7 3.8-1.7c3.6 0 6.2 2.7 6.2 6.6v8.8h-3.7v-8.8c0-1.9-1.3-3.2-3-3.2 c-1.8 0-3.2 1.5-3.2 3.2v8.8h-3.7v-20h3.7V78.6z"/></g><g><path fill="#BF0000" d="M57.4 84.8c0 4.6-3.1 7.9-7.3 7.9s-7.3-3.3-7.3-7.9c0-4.6 3.1-7.9 7.3-7.9C54.3 76.9 57.4 80.2 57.4 84.8z M46.4 84.8c0 2.5 1.5 4.3 3.6 4.3s3.6-1.8 3.6-4.3s-1.5-4.3-3.6-4.3C48 80.5 46.4 82.3 46.4 84.8z"/></g><g><path fill="#BF0000" d="M63.3 78.6c0.9-1.1 2.1-1.7 3.6-1.7c4 0 7.3 3.6 7.3 7.9c0 4.4-3.2 7.9-7.1 7.9c-1.4 0-2.7-0.5-3.8-1.6v5 h-3.7V77.3h3.2L63.3 78.6z M63.3 84.8c0 2.7 1.5 4.6 3.6 4.6c2 0 3.6-2 3.6-4.5c0-2.6-1.6-4.6-3.6-4.6 C64.8 80.2 63.3 82.1 63.3 84.8z"/></g><g><path fill="#BF0000" d="M80.6 78.6c0.9-1.1 2.1-1.7 3.6-1.7c4 0 7.3 3.6 7.3 7.9c0 4.4-3.2 7.9-7.1 7.9c-1.4 0-2.7-0.5-3.8-1.6v5 h-3.7V77.3h3.2L80.6 78.6z M80.6 84.8c0 2.7 1.5 4.6 3.6 4.6c2 0 3.6-2 3.6-4.5c0-2.6-1.6-4.6-3.6-4.6 C82.1 80.2 80.6 82.1 80.6 84.8z"/></g><g><path fill="#BF0000" d="M94.4 75.9v-3.6h3.7v3.6H94.4z M94.4 92.3v-15h3.7v15H94.4z"/></g><g><path fill="#BF0000" d="M105.5 79.1c0.8-1 2.2-1.7 3.8-1.7c3.6 0 6.2 2.7 6.2 6.6v8.8h-3.7V84c0-1.9-1.3-3.2-3-3.2 c-1.8 0-3.2 1.5-3.2 3.2v8.8h-3.7v-15h3.2L105.5 79.1z"/></g><g><path fill="#BF0000" d="M131.9 89c0 4.9-2.7 7.8-7.1 7.8c-2.7 0-4.9-1.1-6.5-3.2l2.7-2.1c1 1.3 2.2 2 3.6 2c2.1 0 3.3-1.5 3.5-4.5 c-0.8 1.3-2.1 2-3.7 2c-3.8 0-6.6-2.8-6.6-6.7c0-4 2.8-6.9 6.8-6.9c1.6 0 3.1 0.5 3.8 1.4l0.3-1h3.2V89z M121.5 84.2 c0 1.9 1.5 3.4 3.4 3.4c1.9 0 3.4-1.5 3.4-3.5c0-1.9-1.5-3.4-3.4-3.4C122.9 80.8 121.5 82.3 121.5 84.2z"/></g><g><path fill="#BF0000" d="M143 76.4v-3.6h3.7v3.6H143z M143 92.8v-15h3.7v15H143z"/></g><g><path fill="#BF0000" d="M158.9 82c-1.1-1-2.1-1.5-3.1-1.5c-1 0-1.7 0.5-1.7 1.2c0 0.7 0.5 1.1 1.6 1.4c1.9 0.5 3 0.9 3.8 1.3 c1.7 0.9 2.5 2.1 2.5 3.7c0 2.8-2.5 4.7-6.2 4.7c-2.8 0-4.9-1-6.3-3l2.5-2.3c0.9 1.3 2.3 2 3.9 2c1.4 0 2.1-0.5 2.1-1.3 c0-0.8-0.6-1.2-2.9-1.9c-2-0.7-2.6-0.9-3.3-1.4c-1.1-0.8-1.7-1.8-1.7-3.2c0-2.6 2.4-4.6 5.7-4.6c2.1 0 3.8 0.7 5.6 2.1L158.9 82z"/></g><g><path fill="#BF0000" d="M174.7 77.2v3.9h7.3v3.3h-7.3v4.8h8.2v3.3h-11.9V73.8h11.9v3.3H174.7z"/></g><g><path fill="#BF0000" d="M189.9 79.1c0.8-1 2.2-1.7 3.8-1.7c3.6 0 6.2 2.7 6.2 6.6v8.8h-3.7V84c0-1.9-1.3-3.2-3-3.2 c-1.8 0-3.2 1.5-3.2 3.2v8.8h-3.7v-15h3.2L189.9 79.1z"/></g><g><path fill="#BF0000" d="M208.8 74.5v3.3h4.2v3.3h-4.2v7.6c0 0.7 0.4 1.1 1.1 1.1c0.7 0 1.2-0.4 1.7-1.3l3 1.6c-1.4 2.2-2.7 3-5.1 3 c-2 0-3.7-1-4.2-2.5c-0.1-0.4-0.2-1.3-0.2-2.1v-7.4h-2.7v-3.3h2.7v-3.3H208.8z"/></g><g><path fill="#BF0000" d="M228.2 89.6c-1.8 2.3-3.7 3.4-6.3 3.4c-4.5 0-7.7-3.3-7.7-7.9c0-4.5 3.1-7.9 7.2-7.9c4 0 7.2 3.5 7.2 7.8 c0 0.4 0 0.7-0.1 1.1h-10.2c0.2 2.1 1.7 3.4 3.7 3.4c1.1 0 2.1-0.6 3-1.7L228.2 89.6z M224.3 83.1c-0.4-1.8-1.4-2.7-3-2.7 c-1.5 0-2.7 1-3.1 2.7H224.3z"/></g><g><path fill="#BF0000" d="M235 78.9c1-1.1 2.6-1.7 4.5-1.7v3.3c-1.8 0.1-2.8 0.6-3.5 1.6c-0.4 0.6-0.6 1.4-0.6 2.2v8.2h-3.7v-15h3 L235 78.9z"/></g><g><path fill="#BF0000" d="M247.5 74v3.3h4.2v3.3h-4.2v7.6c0 0.7 0.4 1.1 1.1 1.1c0.7 0 1.2-0.4 1.7-1.3l3 1.6c-1.4 2.2-2.7 3-5.1 3 c-2 0-3.7-1-4.2-2.5c-0.1-0.4-0.2-1.3-0.2-2.1v-7.4h-2.7v-3.3h2.7V74H247.5z"/></g><g><path fill="#BF0000" d="M265.1 90.9c-1 1.1-2.3 1.7-3.8 1.7c-3.9 0-7.1-3.6-7.1-7.9s3.3-7.9 7.3-7.9c1.5 0 2.7 0.6 3.6 1.7l0.5-1.4 h3.2v15h-3.2L265.1 90.9z M257.8 84.8c0 2.5 1.6 4.6 3.6 4.6c2.1 0 3.6-1.9 3.6-4.5c0-2.7-1.5-4.6-3.6-4.6 C259.4 80.2 257.8 82.2 257.8 84.8z"/></g><g><path fill="#BF0000" d="M272.1 76.4v-3.6h3.7v3.6H272.1z M272.1 92.8v-15h3.7v15H272.1z"/></g><g><path fill="#BF0000" d="M284 78.9c0.8-1 2.2-1.7 3.8-1.7c3.6 0 6.2 2.7 6.2 6.6v8.8h-3.7v-8.8c0-1.9-1.3-3.2-3-3.2 c-1.8 0-3.2 1.5-3.2 3.2v8.8h-3.7v-15h3.2L284 78.9z"/></g><g><path fill="#BF0000" d="M300.3 78.9c0.6-1 2-1.7 3.5-1.7c1.6 0 2.8 0.7 3.6 2.1c1-1.4 2.5-2.1 4.3-2.1c3.2 0 5.1 2.4 5.1 6.6v8.8 h-3.7v-8.8c0-1.9-0.8-3-2.1-3c-1.5 0-2.4 1.2-2.4 3v8.8h-3.7v-8.8c0-1.8-0.8-3-2.1-3c-1.3 0-2.4 1.3-2.4 3v8.8h-3.7v-15h3 L300.3 78.9z"/></g><g><path fill="#BF0000" d="M333 89.6c-1.8 2.3-3.7 3.4-6.3 3.4c-4.5 0-7.7-3.3-7.7-7.9c0-4.5 3.2-7.9 7.2-7.9c4 0 7.2 3.5 7.2 7.8 c0 0.4 0 0.7-0.1 1.1h-10.2c0.2 2.1 1.7 3.4 3.7 3.4c1.1 0 2.1-0.6 3-1.7L333 89.6z M329.2 83.1c-0.4-1.8-1.4-2.7-3-2.7 c-1.5 0-2.7 1-3.1 2.7H329.2z"/></g><g><path fill="#BF0000" d="M339.5 78.6c0.8-1 2.2-1.7 3.8-1.7c3.6 0 6.2 2.7 6.2 6.6v8.8h-3.7v-8.8c0-1.9-1.3-3.2-3-3.2 c-1.8 0-3.2 1.5-3.2 3.2v8.8h-3.7v-15h3.2L339.5 78.6z"/></g><g><path fill="#BF0000" d="M359 74.2v3.3h4.2v3.3H359v7.6c0 0.7 0.4 1.1 1.1 1.1c0.7 0 1.2-0.4 1.7-1.3l3 1.6c-1.4 2.2-2.7 3-5.1 3 c-2 0-3.7-1-4.2-2.5c-0.1-0.4-0.2-1.3-0.2-2.1v-7.4h-2.7v-3.3h2.7v-3.3H359z"/></g><g><path fill="#BF0000" d="M371.1 86.5h-3.7v-13h3.7V86.5z M367.4 92.3v-3.6h3.7v3.6H367.4z"/></g></svg>