<?xml version="1.0" encoding="utf-8"?>
<!-- Generator: Adobe Illustrator 14.0.0, SVG Export Plug-In  -->
<!DOCTYPE svg PUBLIC "-//W3C//DTD SVG 1.1//EN" "http://www.w3.org/Graphics/SVG/1.1/DTD/svg11.dtd" [
	<!ENTITY ns_flows "http://ns.adobe.com/Flows/1.0/">
]>
<svg version="1.1"
	 xmlns="http://www.w3.org/2000/svg" xmlns:xlink="http://www.w3.org/1999/xlink" xmlns:a="http://ns.adobe.com/AdobeSVGViewerExtensions/3.0/"
	 x="0px" y="0px" width="267px" height="267px" viewBox="0 0 267 267" enable-background="new 0 0 267 267" xml:space="preserve">
<defs>
</defs>
<path fill="#3B5998" d="M252.164,266.895c8.133,0,14.729-6.596,14.729-14.729V14.731C266.893,6.594,260.296,0,252.164,0H14.73
	C6.593,0,0,6.594,0,14.731v237.435c0,8.134,6.593,14.729,14.73,14.729H252.164z"/>
<path fill="#FFFFFF" d="M184.152,266.895V163.541h34.692l5.194-40.28h-39.887V97.543c0-11.662,3.237-19.609,19.961-19.609
	l21.33-0.01V41.898c-3.689-0.49-16.351-1.587-31.08-1.587c-30.754,0-51.807,18.771-51.807,53.244v29.705h-34.781v40.28h34.781
	v103.354H184.152z"/>
</svg>
