<?xml version="1.0" encoding="utf-8"?>
<!-- Generator: Adobe Illustrator 16.0.4, SVG Export Plug-In . SVG Version: 6.00 Build 0)  -->
<!DOCTYPE svg PUBLIC "-//W3C//DTD SVG 1.1//EN" "http://www.w3.org/Graphics/SVG/1.1/DTD/svg11.dtd">
<svg version="1.1" id="Layer_1" xmlns="http://www.w3.org/2000/svg" xmlns:xlink="http://www.w3.org/1999/xlink" x="0px" y="0px"
	 width="212.632px" height="212.632px" viewBox="0 0 212.632 212.632" enable-background="new 0 0 212.632 212.632"
	 xml:space="preserve">
<g>
	<path fill="#40B4E5" d="M1.365,212.866h210.606V2.262H1.365V212.866z M191.612,192.512H21.718V22.618h169.895V192.512z"/>
	<path fill="#82BC00" d="M41.548,172.681h130.238V42.444H41.548V172.681z M151.958,152.857H61.372V62.272h90.586V152.857z"/>
	<path fill="#F38B00" d="M80.112,134.118h53.109V81.01H80.112V134.118z M117.46,118.357H95.874V96.77h21.586V118.357z"/>
	<polygon fill="#009BDE" points="211.972,212.866 211.972,2.262 1.365,2.262 21.719,22.618 191.612,22.618 191.612,192.513 	"/>
	<polygon fill="#C4D600" points="151.958,152.856 61.373,152.856 61.373,62.272 41.548,42.445 41.548,172.681 171.786,172.681 	"/>
	<polygon fill="#F6B221" points="117.46,118.357 95.874,118.357 95.874,96.771 80.112,81.01 80.112,134.117 133.222,134.117 	"/>
</g>
</svg>
