<?xml version="1.0" encoding="utf-8"?>
<!-- Generator: Adobe Illustrator 17.1.0, SVG Export Plug-In . SVG Version: 6.00 Build 0)  -->
<!DOCTYPE svg PUBLIC "-//W3C//DTD SVG 1.1//EN" "http://www.w3.org/Graphics/SVG/1.1/DTD/svg11.dtd">
<svg version="1.1" id="Layer_1" xmlns="http://www.w3.org/2000/svg" xmlns:xlink="http://www.w3.org/1999/xlink" x="0px" y="0px"
	 viewBox="0 0 582 123.3" style="enable-background:new 0 0 582 123.3;" xml:space="preserve">
<style type="text/css">
	.st0{fill:#FFFFFF;}
</style>
<g>
	<path class="st0" d="M13.7,118.7L62.5,0h4.4l51.5,118.7h14.1v2.3H77.5v-2.3h15.2l-19-43.8H34.5l-18.2,43.8h14.6v2.3H0v-2.3H13.7z
		 M35.3,72.6h37.6L53.6,28L35.3,72.6z"/>
	<path class="st0" d="M136.7,40.8c3.2-3.1,4.7-6.6,4.7-10.5c0-1.7-0.3-3.2-0.8-4.3c-0.5-1.1-1.1-1.9-1.6-2.5c-1,0.7-2.1,1.1-3.3,1.3
		c-1.2,0.2-2.4,0.3-3.6,0.3c-1.1,0-2.3-0.2-3.7-0.7c-1.4-0.4-2.6-1.1-3.7-2c-1.1-0.9-2-2.1-2.8-3.6c-0.8-1.5-1.1-3.2-1.1-5.3
		c0-2.1,0.4-3.8,1.1-5.3c0.8-1.5,1.7-2.7,2.9-3.6c1.2-0.9,2.5-1.6,4-2c1.5-0.4,2.9-0.7,4.3-0.7c4.1,0,7.7,1.7,10.6,5.1
		c2.9,3.4,4.4,8.2,4.4,14.4c0,4.3-0.8,8-2.3,11.3c-1.5,3.3-3.5,6.2-5.8,8.7c-2.3,2.6-4.9,4.8-7.6,6.7c-2.7,1.9-5.2,3.6-7.5,5L124,51
		C129.3,47.3,133.6,43.9,136.7,40.8z"/>
	<path class="st0" d="M261.8,37.9c-2.8-10.7-7.1-19-12.8-24.9c-5.7-5.9-13.2-8.9-22.7-8.7c-7.5,0-13.6,1.4-18.2,4.3
		c-4.6,2.9-8.1,6.7-10.5,11.3c-2.5,4.6-4.1,9.9-4.8,15.9c-0.8,5.9-1.1,12-1.1,18.1V68c0,9.9,0.7,18.3,2,25
		c1.3,6.8,3.4,12.2,6.1,16.4c2.8,4.1,6.4,7.1,10.8,8.9c4.4,1.8,9.7,2.7,15.8,2.7c5,0,9-0.9,11.9-2.7c2.9-1.8,5.2-4.3,6.8-7.4
		c1.6-3.1,2.6-6.8,3-11c0.4-4.3,0.7-8.9,0.7-13.9v-6.2h-16.8v-2.3h50.5v2.3h-10.6v37.4h-2.9c-0.2-1.3-0.8-2.3-1.9-2.9
		c-1-0.6-2.2-0.9-3.5-0.9c-2.6,0-5.1,0.5-7.4,1.6c-2.3,1-4.9,2.2-7.6,3.4c-2.7,1.2-5.9,2.3-9.4,3.4c-3.5,1-7.8,1.6-12.8,1.6
		c-8,0-15.6-1.6-23.1-4.7c-7.4-3.1-13.9-7.4-19.5-12.8c-5.6-5.4-10.1-11.7-13.5-19.1c-3.4-7.3-5.1-15.2-5.1-23.7
		c0-9.3,1.9-17.7,5.6-25.2c3.8-7.5,8.6-14,14.5-19.3c5.9-5.3,12.5-9.5,19.7-12.3c7.2-2.9,14.4-4.3,21.3-4.3c3.3,0,6.4,0.3,9.5,1
		c3.1,0.7,5.9,1.3,8.5,2c2.6,0.7,5,1.4,7,2c2.1,0.7,3.8,1,5.2,1c1.5,0,2.6-0.2,3.3-0.7c0.7-0.5,1.3-1.4,1.8-2.7h2.8v33.4H261.8z"/>
	<path class="st0" d="M294.2,118.7L342.9,0h4.4l51.5,118.7h14.1v2.3H358v-2.3h15.2l-19-43.8H315l-18.2,43.8h14.6v2.3h-30.9v-2.3
		H294.2z M315.8,72.6h37.6L334.1,28L315.8,72.6z"/>
	<path class="st0" d="M509.1,37.9c-1.2-3.6-2.6-7.4-4.3-11.4c-1.7-4-3.9-7.6-6.5-11c-2.7-3.3-6-6.1-10-8.2c-4-2.1-8.9-3.2-14.8-3.2
		c-8,0-14.2,1.5-18.8,4.4c-4.6,2.9-8,7-10.4,12.3c-2.3,5.2-3.8,11.5-4.5,18.7c-0.7,7.3-1,15.2-1,23.8c0,11.3,0.7,20.7,2,28.1
		c1.3,7.4,3.4,13.3,6.1,17.7c2.8,4.4,6.4,7.4,10.8,9.2c4.4,1.7,9.7,2.6,15.8,2.6c4.9,0,9.3-1,13.3-2.9c4-2,7.5-4.6,10.5-7.8
		c3.1-3.2,5.6-6.9,7.7-11c2.1-4.1,3.6-8.4,4.6-12.9h2.6V121h-2.6c-0.5-1.3-1.2-2.2-2-2.7c-0.8-0.5-1.9-0.7-3.4-0.7
		c-1.3,0-3,0.3-5.1,0.9c-2.1,0.6-4.4,1.3-7.1,2c-2.7,0.7-5.6,1.4-8.7,2c-3.2,0.6-6.5,0.9-10,0.9c-8,0-15.6-1.6-23.1-4.7
		c-7.4-3.1-13.9-7.4-19.5-12.8c-5.6-5.4-10.1-11.7-13.5-19.1c-3.4-7.3-5.1-15.2-5.1-23.7c0-9.3,1.9-17.7,5.6-25.2
		c3.8-7.5,8.6-14,14.5-19.3c5.9-5.3,12.5-9.5,19.7-12.3c7.2-2.9,14.4-4.3,21.3-4.3c3.5,0,6.7,0.3,9.7,1c3,0.7,5.8,1.3,8.3,2
		c2.6,0.7,4.9,1.4,7,2c2.1,0.7,3.8,1,5.2,1c1.5,0,2.7-0.2,3.4-0.6c0.8-0.4,1.3-1.3,1.6-2.9h2.6v33.4H509.1z"/>
	<path class="st0" d="M582,4.6v2.3h-15v111.9h15v2.3h-53.8v-2.3h15V6.9h-15V4.6H582z"/>
</g>
</svg>
